<?xml version="1.0" encoding="UTF-8"?>
<svg xmlns="http://www.w3.org/2000/svg" xmlns:xlink="http://www.w3.org/1999/xlink" width="45px" height="41px" viewBox="0 0 45 41" version="1.1">
<g id="surface1">
<path style=" stroke:none;fill-rule:nonzero;fill:rgb(0%,0%,0%);fill-opacity:1;" d="M 24.1875 12.6875 L 25.988281 1.582031 C 26.140625 0.675781 26.914062 0 27.816406 0 C 28.40625 0 28.953125 0.285156 29.304688 0.765625 L 30.621094 2.5625 L 34.699219 2.5625 C 35.683594 2.5625 36.640625 2.972656 37.34375 3.691406 L 38.75 5.125 L 43.128906 5.125 C 44.164062 5.125 45 5.980469 45 7.046875 L 45 8.96875 C 45 12.511719 42.203125 15.375 38.75 15.375 L 33.335938 15.375 L 32.941406 17.8125 Z M 32.5 20.507812 L 32.5 38.4375 C 32.5 39.851562 31.386719 41 29.996094 41 L 27.5 41 C 26.121094 41 24.996094 39.851562 24.996094 38.4375 L 24.996094 29.210938 C 23.125 30.199219 20.996094 30.75 18.746094 30.75 C 16.496094 30.75 14.378906 30.199219 12.5 29.210938 L 12.5 38.4375 C 12.5 39.851562 11.382812 41 10 41 L 7.496094 41 C 6.117188 41 5 39.851562 5 38.4375 L 5 20 C 2.75 19.128906 0.984375 17.171875 0.378906 14.679688 L 0.078125 13.433594 C -0.253906 12.066406 0.554688 10.675781 1.898438 10.328125 C 3.242188 9.984375 4.597656 10.820312 4.929688 12.199219 L 5.238281 13.433594 C 5.511719 14.574219 6.503906 15.375 7.65625 15.375 L 23.730469 15.375 Z M 36.246094 6.40625 C 36.246094 5.695312 35.691406 5.125 35 5.125 C 34.3125 5.125 33.75 5.695312 33.75 6.40625 C 33.75 7.117188 34.3125 7.6875 35 7.6875 C 35.691406 7.6875 36.246094 7.117188 36.246094 6.40625 Z M 36.246094 6.40625 "/>
</g>
</svg>
